HIERARCHY
ROOT Pelvis
{
	OFFSET 0.000000 0.000000 0.000000
	CHANNELS 6 Xposition Yposition Zposition Zrotation Yrotation Xrotation 
	JOINT Left_hip
	{
		OFFSET 0.068973 -0.091024 -0.007589
		CHANNELS 3 Zrotation Yrotation Xrotation
		JOINT Left_knee
		{
			OFFSET 0.036482 -0.391037 -0.003979
			CHANNELS 3 Zrotation Yrotation Xrotation
			JOINT Left_ankle
			{
				OFFSET -0.012239 -0.415469 -0.043440
				CHANNELS 3 Zrotation Yrotation Xrotation
				JOINT Left_foot
				{
					OFFSET 0.023806 -0.058558 0.118702
					CHANNELS 3 Zrotation Yrotation Xrotation
					End Site
					{
						OFFSET 0.000000 0.000000 0.000000
					}
				}
			}
		}
	}
	JOINT Right_hip
	{
		OFFSET -0.066552 -0.090468 -0.003847
		CHANNELS 3 Zrotation Yrotation Xrotation
		JOINT Right_knee
		{
			OFFSET -0.042435 -0.398340 -0.006400
			CHANNELS 3 Zrotation Yrotation Xrotation
			JOINT Right_ankle
			{
				OFFSET 0.014931 -0.415421 -0.041327
				CHANNELS 3 Zrotation Yrotation Xrotation
				JOINT Right_foot
				{
					OFFSET -0.021472 -0.049410 0.121889
					CHANNELS 3 Zrotation Yrotation Xrotation
					End Site
					{
						OFFSET 0.000000 0.000000 0.000000
					}
				}
			}
		}
	}
	JOINT Spine1
	{
		OFFSET -0.002904 0.105700 -0.022855
		CHANNELS 3 Zrotation Yrotation Xrotation
		JOINT Spine2
		{
			OFFSET 0.004179 0.132554 -0.002501
			CHANNELS 3 Zrotation Yrotation Xrotation
			JOINT Spine3
			{
				OFFSET 0.001987 0.049603 0.025988
				CHANNELS 3 Zrotation Yrotation Xrotation
				JOINT Neck
				{
					OFFSET -0.003935 0.211336 -0.045638
					CHANNELS 3 Zrotation Yrotation Xrotation
					JOINT Head
					{
						OFFSET 0.003906 0.065991 0.051018
						CHANNELS 3 Zrotation Yrotation Xrotation
						End Site
						{
							OFFSET 0.000000 0.000000 0.000000
						}
					}
				}
				JOINT Left_collar
				{
					OFFSET 0.072882 0.117751 -0.036270
					CHANNELS 3 Zrotation Yrotation Xrotation
					JOINT Left_shoulder
					{
						OFFSET 0.082118 0.032630 -0.005771
						CHANNELS 3 Zrotation Yrotation Xrotation
						JOINT Left_elbow
						{
							OFFSET 0.263305 -0.015144 -0.028095
							CHANNELS 3 Zrotation Yrotation Xrotation
							JOINT Left_wrist
							{
								OFFSET 0.250741 0.010115 -0.000759
								CHANNELS 3 Zrotation Yrotation Xrotation
								JOINT Left_palm
								{
									OFFSET 0.080683 -0.009989 -0.013613
									CHANNELS 3 Zrotation Yrotation Xrotation
									End Site
									{
										OFFSET 0.000000 0.000000 0.000000
									}
								}
							}
						}
					}
				}
				JOINT Right_collar
				{
					OFFSET -0.074811 0.116132 -0.040385
					CHANNELS 3 Zrotation Yrotation Xrotation
					JOINT Right_shoulder
					{
						OFFSET -0.085089 0.032943 -0.007484
						CHANNELS 3 Zrotation Yrotation Xrotation
						JOINT Right_elbow
						{
							OFFSET -0.254763 -0.014219 -0.020321
							CHANNELS 3 Zrotation Yrotation Xrotation
							JOINT Right_wrist
							{
								OFFSET -0.256597 0.009233 -0.005063
								CHANNELS 3 Zrotation Yrotation Xrotation
								JOINT Right_palm
								{
									OFFSET -0.080528 -0.007219 -0.010379
									CHANNELS 3 Zrotation Yrotation Xrotation
									End Site
									{
										OFFSET 0.000000 0.000000 0.000000
									}
								}
							}
						}
					}
				}
			}
		}
	}
}
MOTION
Frames: 5
Frame Time: 0.100000
0.000000 0.000000 0.000000 175.949019 17.355264 -21.330935 11.188742 8.487382 17.045451 -1.327560 5.534525 -4.392462 -5.215644 10.672095 1.369475 3.574055 6.121257 -5.120257 -4.581781 -6.731793 13.350439 3.301966 -6.353528 -2.226000 3.869743 -4.078015 -0.440033 -0.122934 -6.201701 4.521244 2.289458 1.003176 -3.399037 1.355834 -2.001471 9.457928 1.234860 -0.282221 -1.245316 -0.941255 5.765727 9.551263 -0.801406 -3.288779 -13.292845 -21.833724 -4.138550 8.275056 -53.362509 0.037031 12.389500 1.661495 -30.422490 18.364181 -13.728556 -12.304301 10.047045 -10.727113 -2.981773 -22.522336 20.859045 10.221289 9.375433 53.128816 -1.105604 12.017184 -5.095589 19.715210 8.263167 8.306432 7.524384 1.336427 10.378710 3.074091 -8.481176 
0.004143 0.000427 0.002534 176.481149 15.668341 -20.344910 11.254101 8.957349 17.832500 -1.442624 5.398931 -6.622769 -4.968624 11.026886 2.260455 3.138624 6.623081 -5.213805 -4.189269 -6.415140 11.080347 3.078602 -5.819446 -0.003770 3.900971 -4.446132 -1.662911 -0.659712 -5.329285 4.732812 2.586894 0.345558 -3.510198 1.573375 -2.238117 8.906363 1.097621 -0.476921 -1.221805 -0.591995 5.774042 10.577396 -1.117984 -2.875018 -11.292599 -22.229900 -4.228828 7.931931 -53.979849 -0.318071 12.845984 2.368892 -24.130345 16.451415 -13.414527 -10.316931 10.613256 -11.527933 -4.108296 -22.994425 20.950390 9.576017 8.629727 54.224822 -1.083479 12.708327 -5.778598 18.521174 7.301173 7.684820 6.529095 1.423330 11.772705 3.912582 -9.052366 
0.017447 0.000392 0.009445 176.608169 15.151977 -20.064448 12.113323 9.167331 18.353527 -1.309119 5.412023 -7.494200 -5.290328 10.779822 3.206726 3.133962 7.355218 -5.432851 -3.437607 -6.146224 10.593870 3.333915 -5.629284 0.986740 4.108528 -4.769012 -2.755814 -1.940426 -4.793424 4.818231 2.315962 -0.541188 -3.043690 1.574992 -2.988596 8.562606 1.253637 -1.358769 -0.274108 -0.272807 6.320860 11.608344 -1.377769 -2.944492 -10.577336 -21.960538 -4.517587 8.527508 -54.197150 -0.382179 11.969156 3.069736 -21.481693 15.044904 -13.106100 -8.742825 9.803448 -12.240590 -4.563327 -23.753783 20.794065 9.107931 7.902578 56.084114 -0.696849 12.641265 -6.905312 20.003314 6.309452 7.139574 5.752002 0.194229 12.722013 4.117026 -9.495075 
0.039315 0.000447 0.016728 176.623961 15.115957 -19.658695 13.250383 9.031472 17.339062 -0.855433 5.994488 -6.546969 -5.817236 10.483166 4.196028 3.207485 7.879668 -5.852806 -2.287225 -5.878671 10.763794 4.064249 -5.802525 0.226287 3.554461 -4.473815 -3.098479 -1.972202 -5.459720 5.171345 1.928007 -0.752736 -1.998362 1.545161 -3.149528 8.605149 1.657272 -1.769658 0.604829 0.154248 6.242934 12.357001 -0.753900 -3.888467 -11.492166 -21.035634 -4.202984 8.796303 -54.175037 -0.528889 10.432876 4.801712 -23.630888 12.960878 -12.599616 -9.591158 8.316491 -11.857856 -3.708029 -23.384827 20.327444 8.797543 7.850679 57.699499 -1.019179 12.161598 -8.212777 23.142137 6.290974 5.595020 6.408488 -0.772481 12.239034 3.378665 -8.863351 
0.061931 0.000288 0.022205 176.706956 16.443543 -19.492945 14.227889 8.544700 15.398136 -0.544598 6.490395 -4.259720 -6.397230 9.914208 5.092694 3.310824 7.815123 -6.040814 -1.576908 -6.005763 12.129235 5.134106 -6.435763 -2.238842 2.544695 -4.015589 -3.011898 -1.593838 -6.604524 5.735834 2.110731 -0.603044 0.106595 1.107706 -3.130779 8.033033 2.034070 -2.090031 2.013058 0.035772 5.150358 13.462744 0.222612 -5.048917 -11.978744 -20.088724 -3.705067 9.140176 -54.962758 -2.162756 6.622749 9.642022 -24.379380 4.259323 -10.507074 -10.911352 1.667646 -10.774363 -1.696392 -21.561483 18.924285 8.935962 8.398095 59.203971 -0.574874 10.730560 -10.370281 23.998649 2.871132 4.140054 7.260061 -5.067463 10.340490 1.889161 -7.187181 
